<svg xmlns="http://www.w3.org/2000/svg" width="24" height="24" viewBox="0 0 24 24" fill="none" stroke="currentColor" stroke-width="2" stroke-linecap="round" stroke-linejoin="round" class="feather feather-github"><path d="M9 19c-5 1.5-5-2.5-7-3m14 6v-3.87a3.37 3.37 0 0 0-.94-2.61c3.14-.35 6.44-1.54 6.44-7A5.44 5.44 0 0 0 20 4.77 5.07 5.07 0 0 0 19.91 1S18.73.65 16 2.48a13.38 13.38 0 0 0-7 0C3.62.65 2.44 1 2.44 1a5.07 5.07 0 0 0-.08 3.77A5.44 5.44 0 0 0 2 11.77c0 5.51 3.33 6.61 6.36 7.14.3.26.55.65.55 1.39V20.24"></path></svg>